HIERARCHY
ROOT SpineBase
{
  OFFSET 0.000000 0.000000 0.000000
  CHANNELS 6 Xposition Yposition Zposition Zrotation Xrotation Yrotation
  JOINT SpineMid
  {
    OFFSET 0.000000 32.234412 0.000000
    CHANNELS 3 Zrotation Xrotation Yrotation
    JOINT SpineShoulder
    {
      OFFSET 0.251088 23.883084 -0.765857
      CHANNELS 3 Zrotation Xrotation Yrotation
      JOINT Neck
      {
        OFFSET 0.188790 7.877288 -0.573278
        CHANNELS 3 Zrotation Xrotation Yrotation
        JOINT Head
        {
          OFFSET 4.867276 14.264598 2.321897
          CHANNELS 3 Zrotation Xrotation Yrotation
          End Site
          {
            OFFSET 0 0 0
          }
        }
      }
      JOINT ShoulderLeft
      {
        OFFSET -11.432287 -2.760578 -11.313674
        CHANNELS 3 Zrotation Xrotation Yrotation
        JOINT ElbowLeft
        {
          OFFSET -6.228361 -22.780002 -3.944036
          CHANNELS 3 Zrotation Xrotation Yrotation
          JOINT WristLeft
          {
            OFFSET 2.345418 -27.097485 -7.195190
            CHANNELS 3 Zrotation Xrotation Yrotation
            JOINT HandLeft
            {
              OFFSET 1.787087 -7.972732 0.307095
              CHANNELS 3 Zrotation Xrotation Yrotation
              JOINT HandTipLeft
              {
                OFFSET 0.587495 -7.167273 -2.201467
                CHANNELS 3 Zrotation Xrotation Yrotation
                End Site
                {
                  OFFSET 0 0 0
                }
              }
              JOINT ThumbLeft
              {
                OFFSET 3.784366 -0.447861 2.358314
                CHANNELS 3 Zrotation Xrotation Yrotation
                End Site
                {
                  OFFSET 0 0 0
                }
              }
            }
          }
        }
      }
      JOINT ShoulderRight
      {
        OFFSET 13.933401 -5.080065 12.824769
        CHANNELS 3 Zrotation Xrotation Yrotation
        JOINT ElbowRight
        {
          OFFSET 1.299155 -29.992873 1.670108
          CHANNELS 3 Zrotation Xrotation Yrotation
          JOINT WristRight
          {
            OFFSET 6.004542 -21.500017 -4.246516
            CHANNELS 3 Zrotation Xrotation Yrotation
            JOINT HandRight
            {
              OFFSET 1.999810 -6.171698 -2.791577
              CHANNELS 3 Zrotation Xrotation Yrotation
              JOINT HandTipRight
              {
                OFFSET -0.465215 -5.494261 -1.309890
                CHANNELS 3 Zrotation Xrotation Yrotation
                End Site
                {
                  OFFSET 0 0 0
                }
              }
              JOINT ThumbRight
              {
                OFFSET -1.776243 -1.551151 -2.910621
                CHANNELS 3 Zrotation Xrotation Yrotation
                End Site
                {
                  OFFSET 0 0 0
                }
              }
            }
          }
        }
      }
    }
  }
  JOINT HipLeft
  {
    OFFSET -4.083063 1.463902 -8.052312
    CHANNELS 3 Zrotation Xrotation Yrotation
    JOINT KneeLeft
    {
      OFFSET -8.913395 -30.750500 -1.708374
      CHANNELS 3 Zrotation Xrotation Yrotation
      JOINT AnkleLeft
      {
        OFFSET -9.112457 -37.984057 7.708058
        CHANNELS 3 Zrotation Xrotation Yrotation
        JOINT FootLeft
        {
          OFFSET 8.132708 -4.322464 -10.877676
          CHANNELS 3 Zrotation Xrotation Yrotation
          End Site
          {
            OFFSET 0 0 0
          }
        }
      }
    }
  }
  JOINT HipRight
  {
    OFFSET 6.278767 -0.159482 1.170170
    CHANNELS 3 Zrotation Xrotation Yrotation
    JOINT KneeRight
    {
      OFFSET 1.286933 -33.766768 1.137329
      CHANNELS 3 Zrotation Xrotation Yrotation
      JOINT AnkleRight
      {
        OFFSET 0.429787 -36.591506 10.746421
        CHANNELS 3 Zrotation Xrotation Yrotation
        JOINT FootRight
        {
          OFFSET 7.821175 -4.310259 -10.976599
          CHANNELS 3 Zrotation Xrotation Yrotation
          End Site
          {
            OFFSET 0 0 0
          }
        }
      }
    }
  }
}
MOTION
Frames: 9
Frame Time: 0.033333
-96.757714 75.629697 318.781141 -1.276622 -0.261551 -29.859617 0.270196 0.383965 29.830410 0.851103 0.063469 0.026157 6.011818 -26.024981 9.977300 0.000000 0.000000 0.000000 -0.695300 -6.811165 1.960221 10.191714 14.849887 -5.335654 8.991086 16.943269 5.936102 -3.731890 -25.497545 -8.501713 0.000000 0.000000 0.000000 0.000000 0.000000 0.000000 21.785624 2.011477 0.921141 -58.633970 22.889690 20.899280 -6.354039 -5.570451 6.898473 56.563483 16.235321 -20.057233 0.000000 0.000000 0.000000 0.000000 0.000000 0.000000 -0.139803 2.448292 29.332459 -1.688364 -0.062158 -0.311076 -1.203327 0.668824 13.248754 0.000000 0.000000 0.000000 -1.202668 1.661752 29.914932 -3.075910 -1.143868 -1.448106 1.430975 1.997854 13.817536 0.000000 0.000000 0.000000
-96.738445 75.590452 318.988506 -0.813050 -0.294624 -28.665534 0.572105 0.648504 28.660205 -0.000000 0.000000 0.000000 8.160741 -29.858591 12.048742 0.000000 0.000000 0.000000 -1.337530 -7.061625 2.097726 14.733368 16.661250 -7.275537 10.160057 16.334074 6.828752 -0.809394 -17.594933 -9.553646 0.000000 0.000000 0.000000 0.000000 0.000000 0.000000 29.860265 3.187711 0.979503 -72.340346 26.376032 25.160386 0.442139 -1.976563 9.622976 50.730286 15.035320 -18.506144 0.000000 0.000000 0.000000 0.000000 0.000000 0.000000 -0.885068 3.007191 27.913607 -1.742540 -0.844828 -0.115412 -1.429620 0.792601 14.256231 0.000000 0.000000 0.000000 -1.707799 1.986681 28.753411 -3.429636 -1.718332 -1.582548 1.379279 2.278487 14.881622 0.000000 0.000000 0.000000
-96.772879 75.514712 319.217669 0.001615 -0.323845 -27.874415 0.800671 0.433327 27.901377 0.419354 -0.241273 0.079315 8.314237 -32.594962 13.734251 0.000000 0.000000 0.000000 -2.514902 -6.661003 2.030270 18.343992 18.440629 -9.067912 17.221288 16.841586 7.730663 -5.418249 -11.780323 -12.982722 0.000000 0.000000 0.000000 0.000000 0.000000 0.000000 38.199198 5.346798 0.270460 -89.645683 32.659745 32.826189 11.777520 0.341551 12.267883 40.085255 19.203095 -19.657661 0.000000 0.000000 0.000000 0.000000 0.000000 0.000000 -1.812964 3.463224 26.890377 -2.038479 -1.632277 0.053598 -1.478009 0.919697 15.081465 0.000000 0.000000 0.000000 -2.416614 2.299288 27.998524 -3.953843 -2.396566 -1.743590 1.393396 2.564778 15.743446 0.000000 0.000000 0.000000
-96.852047 75.421074 319.446963 1.113211 -0.333259 -27.344246 0.991403 0.366861 27.416736 0.480658 -0.227553 0.138037 7.638365 -35.029754 15.082396 0.000000 0.000000 0.000000 -3.443283 -5.947529 1.741226 22.488159 19.264294 -10.865506 23.652115 16.434860 9.016538 -9.878813 -8.117393 -16.412658 0.000000 0.000000 0.000000 0.000000 0.000000 0.000000 43.808483 7.166500 -0.543073 -107.643432 43.513687 48.464756 25.567935 -3.055075 15.064464 21.996540 23.889864 -25.217706 0.000000 0.000000 0.000000 0.000000 0.000000 0.000000 -2.886964 3.791826 26.120844 -2.501119 -2.434673 0.202360 -1.356448 1.063007 15.572557 0.000000 0.000000 0.000000 -3.309691 2.518316 27.497060 -4.520656 -3.081626 -1.902179 1.463956 2.810503 16.249331 0.000000 0.000000 0.000000
-97.003940 75.291167 319.679103 2.192100 -0.382332 -27.093840 1.104003 0.322440 27.211265 0.422108 -0.209339 0.183772 7.779389 -37.152231 16.476834 0.000000 0.000000 0.000000 -4.311969 -4.842850 1.372911 28.754399 19.599081 -13.378298 26.211695 15.631445 11.041713 -12.984445 -7.388905 -18.927079 0.000000 0.000000 0.000000 0.000000 0.000000 0.000000 45.890117 8.621259 -1.327157 -130.353195 59.156899 80.688457 22.839173 -18.155267 12.552283 21.441944 32.532115 -31.864549 0.000000 0.000000 0.000000 0.000000 0.000000 0.000000 -3.836343 4.141367 25.640162 -3.043694 -3.171680 0.330723 -1.164332 1.177664 15.753288 0.000000 0.000000 0.000000 -4.133681 2.764250 27.269386 -5.061543 -3.695294 -2.036376 1.545583 2.986144 16.424060 0.000000 0.000000 0.000000
-97.220895 75.130145 319.914906 3.303299 -0.508396 -26.982455 1.169180 0.275412 27.149146 0.340645 -0.205569 0.228883 7.261345 -38.089076 17.129006 0.000000 0.000000 0.000000 -4.905202 -3.201004 0.844464 36.088513 19.275358 -16.052092 24.761223 14.102855 13.595219 -14.271244 -9.540709 -19.880019 0.000000 0.000000 0.000000 0.000000 0.000000 0.000000 47.747659 8.664637 -1.610866 -166.598633 68.832342 128.248042 8.901937 -24.006910 4.041022 24.482151 31.328911 -35.371665 0.000000 0.000000 0.000000 0.000000 0.000000 0.000000 -4.830802 4.533845 25.299838 -3.539653 -3.928305 0.471558 -1.004115 1.299701 15.789162 0.000000 0.000000 0.000000 -4.960676 2.901661 27.169022 -5.518092 -4.041797 -2.121859 1.592136 3.032690 16.449675 0.000000 0.000000 0.000000
-97.462500 74.896012 320.110390 4.293690 -0.645209 -27.160702 1.157208 0.197858 27.374068 0.232772 -0.202263 0.263898 7.343652 -38.772590 17.767984 0.000000 0.000000 0.000000 -5.411474 -1.404225 0.305240 42.897193 18.652470 -18.152657 21.117253 13.898915 15.480410 -13.256885 -15.149627 -19.272957 0.000000 0.000000 0.000000 0.000000 0.000000 0.000000 47.952084 8.695384 -1.821732 160.975344 70.772850 169.736315 1.427623 -16.595141 0.043393 26.686676 25.808727 -37.399127 0.000000 0.000000 0.000000 0.000000 0.000000 0.000000 -5.717881 4.796272 25.296223 -3.922683 -4.531534 0.588773 -0.913867 1.416993 15.799618 0.000000 0.000000 0.000000 -5.673230 2.933309 27.349714 -5.870473 -4.198185 -2.163050 1.575290 3.007214 16.446774 0.000000 0.000000 0.000000
-97.725031 74.726142 320.302880 5.037777 -0.802302 -27.229633 1.017848 0.098147 27.478732 0.111508 -0.189851 0.281708 8.168190 -38.546443 17.985888 0.000000 0.000000 0.000000 -5.261093 0.677951 -0.359612 46.731185 17.483375 -18.454302 18.256762 14.878551 16.155664 -12.380241 -23.272957 -17.041173 0.000000 0.000000 0.000000 0.000000 0.000000 0.000000 48.785145 9.194036 -2.225439 147.994591 69.614077 -174.684440 0.386352 -6.216888 0.404154 26.229449 6.892857 -28.611289 0.000000 0.000000 0.000000 0.000000 0.000000 0.000000 -6.336816 5.144331 25.207825 -4.280868 -5.057846 0.698888 -0.914221 1.515546 15.903069 0.000000 0.000000 0.000000 -6.099403 2.813644 27.412688 -6.138222 -4.013440 -2.153330 1.507576 2.918513 16.541200 0.000000 0.000000 0.000000
-97.955893 74.620028 320.469810 5.433902 -0.995019 -27.228513 0.774175 0.031855 27.495823 0.052890 -0.183245 0.285569 9.588459 -37.930426 18.023719 0.000000 0.000000 0.000000 -4.365273 2.142621 -0.940331 47.101210 16.955498 -17.801365 13.234092 18.146970 15.091439 -10.243581 -36.205863 -12.237967 0.000000 0.000000 0.000000 0.000000 0.000000 0.000000 49.191699 9.903902 -2.663062 149.826726 70.427595 -177.816218 11.695755 3.654470 10.424639 14.590148 -8.260897 -31.134218 0.000000 0.000000 0.000000 0.000000 0.000000 0.000000 -6.687822 5.487429 25.119243 -4.473545 -5.365867 0.776168 -0.984097 1.533976 15.990276 0.000000 0.000000 0.000000 -6.259240 2.566531 27.403506 -6.159854 -3.467654 -2.064230 1.363954 2.701257 16.600127 0.000000 0.000000 0.000000
